<?xml version="1.0" encoding="utf-8"?>
<!-- Generator: Adobe Illustrator 27.4.0, SVG Export Plug-In . SVG Version: 6.00 Build 0)  -->
<svg version="1.1"
	 id="svg2" xmlns:inkscape="http://www.inkscape.org/namespaces/inkscape" xmlns:svg="http://www.w3.org/2000/svg" xmlns:sodipodi="http://sodipodi.sourceforge.net/DTD/sodipodi-0.dtd" sodipodi:docname="logo (1).ai"
	 xmlns="http://www.w3.org/2000/svg" xmlns:xlink="http://www.w3.org/1999/xlink" x="0px" y="0px" viewBox="0 0 1215.2 725.2"
	 style="enable-background:new 0 0 1215.2 725.2;" xml:space="preserve">
<style type="text/css">
	.st0{fill:none;stroke:#2BEDED;stroke-width:17.1147;stroke-miterlimit:10;}
	.st1{fill:none;stroke:#2BEDED;stroke-width:8.5039;stroke-miterlimit:10;}
	.st2{fill:none;stroke:#2BEDED;stroke-width:17.0079;stroke-miterlimit:10;}
	.st3{fill:#2BEDED;}
	.st4{fill:none;stroke:#2BEDED;stroke-width:8.5526;stroke-miterlimit:10;}
	.st5{fill:none;stroke:#FAE127;stroke-width:8.5039;stroke-miterlimit:10;}
	.st6{fill:none;stroke:#FAE127;stroke-width:17.0079;stroke-miterlimit:10;}
	.st7{fill:#FAE127;}
</style>
<g id="g10">
	<g id="g12">
		<g>
			<path class="st0" d="M45.1,219"/>
			<path class="st1" d="M40.2,215.1"/>
			<g>
				<line class="st1" x1="100.8" y1="390.6" x2="163.1" y2="457.3"/>
				<line class="st1" x1="80.3" y1="242.6" x2="133.3" y2="303.5"/>
				<g>
					<path class="st2" d="M103,243.8H32.6c-8.3,0-15,6.7-15,15v111.9H116c10.4,0,18.9-8.5,18.9-18.9v-71.7L103,243.8z"/>
					<path class="st2" d="M124.9,391.8H19v111.6c0,5.5,4.5,10,10,10H150c6.5,0,11.8-5.3,11.8-11.8v-70.3L124.9,391.8z"/>
				</g>
			</g>
			<path class="st1" d="M62.9,239.4"/>
		</g>
		<g>
			<polyline class="st2" points="348.8,522.2 348.8,430.7 203.1,430.7 203.1,522.2 			"/>
			<line class="st1" x1="348.8" y1="336.7" x2="263.1" y2="245.3"/>
			<path class="st2" d="M286,245.3h-67.3c-8.6,0-15.5,6.9-15.5,15.5v149.3h145.7v-97.3L286,245.3z"/>
		</g>
		<g>
			<g>
				<polygon class="st3" points="536.6,294.8 481,239 474.7,245.2 529.5,300.2 531.2,300.2 				"/>
			</g>
			<line class="st1" x1="393.9" y1="448.8" x2="452" y2="510.9"/>
			<path class="st3" d="M542.2,467.4L530.7,456v44.1c0,2.5-2,4.6-4.6,4.6l-88.4,0h0c-1.2,0-2.4-0.5-3.3-1.4l-30.3-31.4
				c-0.8-0.9-1.3-2-1.3-3.2v-23.3h-17.6v23.3c0,5.8,2.2,11.2,6.2,15.4l30.3,31.4c4.2,4.3,10,6.8,16,6.8c0,0,0,0,0,0l88.4,0
				c12.2,0,22.2-9.9,22.2-22.2v-38.9L542.2,467.4z"/>
			<path class="st3" d="M548.3,277.2l-41.8-42.5l-93.4,0c-15.4,0-27.9,11.7-27.9,26v36.9l7.5-7.6l10.1,10.1v-39.5
				c0-4.6,4.6-8.4,10.3-8.4l86,0l31.5,32.1l0,15.8h17.6L548.3,277.2z"/>
			<polygon class="st3" points="402.9,300.2 402.9,328.2 450.1,375.4 478.1,375.4 			"/>
			<polygon class="st3" points="530.7,427.9 482.3,379.5 454.2,379.5 530.7,456 			"/>
			<polygon class="st3" points="548.3,461.2 548.3,445.5 530.7,427.9 530.7,456 542.2,467.4 			"/>
			<polygon class="st3" points="392.7,290.1 385.3,297.6 385.3,310.7 402.9,328.2 402.9,300.2 			"/>
		</g>
		<g>
			<polyline class="st2" points="585,379.7 585,285.6 624.6,245.3 720.4,245.3 			"/>
			<line class="st1" x1="649.6" y1="245.3" x2="585" y2="309.4"/>
			<polyline class="st2" points="585,383.6 585,475.8 624.6,515.3 720.4,515.3 			"/>
			<line class="st4" x1="648.6" y1="516.2" x2="584" y2="451.3"/>
			<line class="st2" x1="592.1" y1="392.7" x2="649.6" y2="392.7"/>
			<line class="st2" x1="592.1" y1="370.7" x2="649.6" y2="370.7"/>
		</g>
		<g>
			<g>
				<line class="st5" x1="756.4" y1="303.7" x2="824.3" y2="369.6"/>
				<g>
					<path class="st6" d="M755.8,235.3v89.4l41.9,41.2c0,0,63.5,0,88.1,0c0-3,0-7.7,0-7.7V235.3"/>
				</g>
			</g>
			<line class="st6" x1="885.8" y1="378.9" x2="885.8" y2="521.3"/>
		</g>
		<g>
			<line class="st5" x1="1075" y1="449.1" x2="1017.1" y2="510.9"/>
			<path class="st7" d="M927.3,467.6l11.4-11.4v43.9c0,2.5,2,4.6,4.5,4.6l88,0h0c1.2,0,2.4-0.5,3.3-1.4l30.2-31.3
				c0.8-0.8,1.3-2,1.3-3.2v-23.2h17.5v23.2c0,5.7-2.2,11.2-6.2,15.3l-30.2,31.3c-4.1,4.3-9.9,6.8-15.9,6.8c0,0,0,0,0,0l-88,0
				c-12.2,0-22.1-9.9-22.1-22.1v-38.7L927.3,467.6z"/>
			<path class="st7" d="M921.2,277.1l41.6-42.4l93.1,0c15.3,0,27.8,11.6,27.8,25.9v36.8l-7.4-7.5l-10.1,10.1v-39.4
				c0-4.6-4.6-8.4-10.2-8.4l-85.7,0l-31.4,32l0,15.7h-17.5L921.2,277.1z"/>
			<polygon class="st7" points="1066.1,300 1066.1,327.9 1019,374.9 991.1,374.9 			"/>
			<polygon class="st7" points="938.7,428.3 987,380.1 1014.9,380.1 938.7,456.2 			"/>
			<polygon class="st7" points="921.2,461.4 921.2,445.8 938.7,428.3 938.7,456.2 927.3,467.6 			"/>
			<polygon class="st7" points="1076.2,289.9 1083.6,297.5 1083.6,310.4 1066.1,327.9 1066.1,300 			"/>
		</g>
	</g>
</g>
</svg>
