<svg width="1080" height="1080" viewBox="0 0 1080 1080" fill="none" xmlns="http://www.w3.org/2000/svg">
<rect x="705" y="553" width="12" height="49" fill="#E8FFF5"/>
<path d="M258 553.697V413.447H277.147V536.465H340.523V553.697H258Z" fill="#E8FFF5"/>
<path d="M442.193 504.203H368.286C368.286 516.202 371.573 525.424 378.146 531.87C383.954 537.487 391.422 540.295 400.548 540.295C410.951 540.295 419.631 537.263 426.588 531.2L434.247 544.316C431.438 547.124 427.13 549.549 421.323 551.591C414.047 554.272 405.941 555.612 397.006 555.612C384.114 555.612 373.168 551.24 364.169 542.497C354.149 532.859 349.139 519.903 349.139 503.629C349.139 486.715 354.277 473.153 364.552 462.942C373.743 453.815 384.624 449.252 397.198 449.252C411.813 449.252 423.269 453.368 431.566 461.601C439.608 469.515 443.629 480.014 443.629 493.098C443.629 497.119 443.15 500.82 442.193 504.203ZM398.059 464.569C389.954 464.569 383.157 467.186 377.668 472.419C372.434 477.397 369.467 483.588 368.765 490.992H425.535C425.535 483.652 423.237 477.525 418.642 472.611C413.6 467.25 406.739 464.569 398.059 464.569Z" fill="#E8FFF5"/>
<path d="M520.695 541.922C513.419 551.049 502.282 555.612 487.283 555.612C479.242 555.612 472.269 552.692 466.365 546.852C460.462 541.013 457.51 533.753 457.51 525.073C457.51 514.67 462.057 505.878 471.152 498.698C480.247 491.518 491.847 487.928 505.952 487.928C509.781 487.928 514.121 488.758 518.971 490.417C518.971 473.823 511.568 465.526 496.761 465.526C485.401 465.526 476.657 468.59 470.53 474.717L462.871 459.495C466.318 456.687 471.088 454.278 477.183 452.267C483.279 450.257 489.102 449.252 494.655 449.252C509.526 449.252 520.328 452.634 527.061 459.399C533.794 466.165 537.161 476.919 537.161 491.662V528.424C537.161 537.423 539.841 543.422 545.203 546.422V555.516C537.799 555.516 532.262 554.463 528.593 552.357C524.923 550.251 522.29 546.773 520.695 541.922ZM518.971 503.341C513.227 502.065 509.207 501.427 506.909 501.427C497.718 501.427 490.219 503.788 484.411 508.511C478.604 513.234 475.7 518.818 475.7 525.264C475.7 535.923 481.986 541.252 494.559 541.252C503.75 541.252 511.887 536.88 518.971 528.136V503.341Z" fill="#E8FFF5"/>
<path d="M621.503 468.686C617.546 465.941 613.557 464.569 609.536 464.569C603.09 464.569 597.457 467.537 592.639 473.472C587.82 479.408 585.411 486.556 585.411 494.917V553.697H567.221V451.166H585.411V467.537C592.048 455.347 601.909 449.252 614.993 449.252C618.248 449.252 622.939 449.826 629.066 450.975L621.503 468.686Z" fill="#E8FFF5"/>
<path d="M705 553.697L705.079 494.5C705.079 483.586 703.435 475.499 700.148 471.127C696.861 466.755 691.357 464.569 683.634 464.569C679.486 464.569 675.146 465.814 670.614 468.303C666.083 470.792 662.605 473.855 660.179 477.493V553.697H641.99V451.166H660.179V464.378C666.179 454.294 675.975 449.252 689.57 449.252C712.035 449.252 717 463.184 717 490.5V553.697H705Z" fill="#E8FFF5"/>
<path d="M481.345 667.697V625.742H443.419V667.697H431.567V580.883H443.419V615.668H481.345V580.883H493.197V667.697H481.345Z" fill="black"/>
<path d="M505.937 635.816C505.937 626.019 508.574 618.108 513.848 612.083C519.122 606.058 526.065 603.046 534.678 603.046C543.764 603.046 550.816 605.94 555.833 611.728C560.85 617.515 563.359 625.545 563.359 635.816C563.359 646.048 560.791 654.117 555.655 660.023C550.52 665.93 543.527 668.883 534.678 668.883C525.631 668.883 518.579 665.9 513.522 659.935C508.466 653.969 505.937 645.93 505.937 635.816ZM517.789 635.816C517.789 651.737 523.419 659.698 534.678 659.698C539.932 659.698 544.051 657.564 547.033 653.298C550.016 649.031 551.507 643.204 551.507 635.816C551.507 620.093 545.897 612.231 534.678 612.231C529.542 612.231 525.443 614.325 522.382 618.513C519.32 622.7 517.789 628.468 517.789 635.816Z" fill="black"/>
<path d="M633.877 668.883H630.914L612.307 625.683L593.759 668.883H590.796L568.1 604.054H580.129L593.699 645.712L610.588 604.054H613.551L630.973 645.712L645.551 604.054H656.632L633.877 668.883Z" fill="black"/>
<path d="M705 612.489H698V603.6H705V602H717V603.6H734.03V612.489H717V643.5C717 648.833 717.506 653.141 719.304 655.393C721.101 657.644 723.995 659.77 727.985 659.77C734 659.77 735.419 659.039 738.5 657.578L744 654L749.5 657.578C753.5 653 745 669.252 723.245 669.252C718.227 669.252 713.99 666.385 710.534 662.652C707.077 658.918 705 654.189 705 648.5V612.489Z" fill="#E8FFF5"/>
<path d="M768.546 588.695H746.46C742.667 578.098 740.771 570.457 740.771 565.772C740.771 557.74 742.249 549.542 745.205 541.176C748.161 532.81 754.854 522.798 765.284 511.142C775.713 499.485 782.713 490.533 786.282 484.287C789.852 478.04 791.637 471.961 791.637 466.049C791.637 446.417 779.757 436.6 755.997 436.6C744.62 436.6 734.692 440.672 726.214 448.815L714 424.888C725.266 415.63 742.054 411 764.363 411C781.095 411 795.011 415.741 806.11 425.223C817.209 434.704 822.758 447.365 822.758 463.204C822.758 471.236 821.336 478.96 818.492 486.378C815.647 493.796 811.269 500.628 805.357 506.875L780.928 532.977C771.112 545.024 766.204 558.521 766.204 573.469C766.204 575.811 766.985 580.886 768.546 588.695Z" fill="black"/>
<path d="M733 635.77C733 625.973 735.637 618.062 740.911 612.037C746.185 606.012 753.128 603 761.741 603C770.827 603 777.879 605.894 782.896 611.682C787.913 617.469 790.422 625.499 790.422 635.77C790.422 646.002 787.854 654.071 782.718 659.977C777.583 665.884 770.59 668.837 761.741 668.837C752.694 668.837 745.642 665.854 740.585 659.889C735.529 653.923 733 645.884 733 635.77ZM744.852 635.77C744.852 651.691 750.482 659.652 761.741 659.652C766.995 659.652 771.114 657.518 774.096 653.252C777.079 648.985 778.57 643.158 778.57 635.77C778.57 620.047 772.96 612.185 761.741 612.185C756.605 612.185 752.506 614.279 749.445 618.467C746.383 622.654 744.852 628.422 744.852 635.77Z" fill="black"/>
</svg>
