<svg width="110" height="28" viewBox="0 0 110 28" fill="none" xmlns="http://www.w3.org/2000/svg">
<path d="M85.1266 24.2675C85.0895 24.1474 85.0388 24.0394 84.974 23.9436C84.9092 23.8478 84.8321 23.7657 84.7421 23.6972C84.6526 23.6288 84.5495 23.5771 84.4336 23.5426C84.3181 23.5076 84.1919 23.4899 84.0551 23.4899C83.81 23.4899 83.5918 23.5517 83.4 23.6749C83.2086 23.7981 83.0582 23.9791 82.9491 24.2173C82.8399 24.4556 82.7854 24.7455 82.7854 25.0872C82.7854 25.4319 82.8395 25.7239 82.9478 25.9626C83.0565 26.2019 83.2069 26.3834 83.4 26.5076C83.5931 26.6313 83.8173 26.6936 84.073 26.6936C84.3044 26.6936 84.5056 26.649 84.6756 26.5598C84.8457 26.4705 84.9766 26.3438 85.0686 26.1801C85.1607 26.0158 85.2067 25.8232 85.2067 25.6017L85.3938 25.6306H84.1552V24.9848H86.0063V25.5328C86.0063 25.9236 85.9232 26.2612 85.757 26.5466C85.5907 26.8315 85.3618 27.051 85.0707 27.2046C84.7796 27.3582 84.4455 27.4352 84.0683 27.4352C83.6481 27.4352 83.2794 27.3404 82.9623 27.1513C82.6452 26.9617 82.398 26.6921 82.2207 26.3428C82.0429 25.993 81.9543 25.5774 81.9543 25.0963C81.9543 24.7278 82.0067 24.3988 82.1116 24.1094C82.216 23.8199 82.363 23.5735 82.5514 23.3708C82.7402 23.168 82.9614 23.0139 83.2154 22.9074C83.469 22.8015 83.7452 22.7483 84.044 22.7483C84.2963 22.7483 84.5316 22.7848 84.7502 22.8583C84.9685 22.9323 85.1624 23.0362 85.3324 23.1715C85.5025 23.3069 85.6427 23.4671 85.7527 23.6526C85.8622 23.8382 85.9343 24.0435 85.9688 24.2675H85.1266Z" fill="#1C1C1C"/>
<path d="M88.3637 27.3723V22.8101H90.0745C90.4249 22.8101 90.7194 22.8709 90.9576 22.9925C91.1963 23.1147 91.3766 23.285 91.4989 23.504C91.6217 23.723 91.683 23.978 91.683 24.2689C91.683 24.5619 91.6208 24.8154 91.4968 25.0298C91.3728 25.2443 91.1908 25.41 90.95 25.5266C90.7096 25.6432 90.4138 25.7015 90.0634 25.7015H88.8449V25.0156H89.9522C90.1568 25.0156 90.3247 24.9868 90.4556 24.9295C90.586 24.8727 90.6832 24.7885 90.7462 24.678C90.8093 24.5675 90.8409 24.4312 90.8409 24.2689C90.8409 24.1072 90.8089 23.9689 90.745 23.8538C90.681 23.7387 90.5838 23.651 90.4534 23.5907C90.3226 23.5309 90.1542 23.5005 89.9475 23.5005H89.1901V27.3723H88.3637ZM90.7207 25.3051L91.8501 27.3723H90.9278L89.8184 25.3051H90.7207Z" fill="#1C1C1C"/>
<path d="M97.9786 25.0917C97.9786 25.5834 97.887 26.0042 97.7033 26.3539C97.52 26.7032 97.2707 26.9714 96.9549 27.1569C96.6395 27.3424 96.2819 27.4352 95.8825 27.4352C95.4827 27.4352 95.1255 27.3419 94.8097 27.1559C94.4943 26.9694 94.2446 26.7012 94.0613 26.3514C93.878 26.0016 93.7859 25.5819 93.7859 25.0917C93.7859 24.6 93.878 24.1793 94.0613 23.8295C94.2446 23.4803 94.4943 23.2121 94.8097 23.0266C95.1255 22.8411 95.4827 22.7483 95.8825 22.7483C96.2819 22.7483 96.6395 22.8411 96.9549 23.0266C97.2707 23.2121 97.52 23.4803 97.7033 23.8295C97.887 24.1793 97.9786 24.6 97.9786 25.0917ZM97.1475 25.0917C97.1475 24.7455 97.0938 24.4535 96.986 24.2153C96.8786 23.977 96.7298 23.7966 96.5397 23.6739C96.3496 23.5512 96.1305 23.4899 95.8825 23.4899C95.6344 23.4899 95.4154 23.5512 95.2253 23.6739C95.0352 23.7966 94.8864 23.977 94.7786 24.2153C94.6708 24.4535 94.6171 24.7455 94.6171 25.0917C94.6171 25.438 94.6708 25.7299 94.7786 25.9682C94.8864 26.2064 95.0352 26.3869 95.2253 26.5096C95.4154 26.6322 95.6344 26.6936 95.8825 26.6936C96.1305 26.6936 96.3496 26.6322 96.5397 26.5096C96.7298 26.3869 96.8786 26.2064 96.986 25.9682C97.0938 25.7299 97.1475 25.438 97.1475 25.0917Z" fill="#1C1C1C"/>
<path d="M103.096 22.8101H103.922V25.7907C103.922 26.1172 103.845 26.4046 103.692 26.653C103.538 26.9008 103.323 27.094 103.045 27.2329C102.767 27.3718 102.442 27.4412 102.071 27.4412C101.698 27.4412 101.373 27.3718 101.096 27.2329C100.818 27.094 100.602 26.9008 100.449 26.653C100.296 26.4046 100.22 26.1172 100.22 25.7907V22.8101H101.047V25.7218C101.047 25.9119 101.088 26.0812 101.172 26.2297C101.256 26.3782 101.375 26.4943 101.528 26.5779C101.681 26.6621 101.862 26.7042 102.071 26.7042C102.28 26.7042 102.462 26.6621 102.616 26.5779C102.77 26.4943 102.888 26.3782 102.971 26.2297C103.054 26.0812 103.096 25.9119 103.096 25.7218V22.8101Z" fill="#1C1C1C"/>
<path d="M106.28 27.3723V22.8101H107.99C108.341 22.8101 108.635 22.8755 108.873 23.0062C109.112 23.137 109.292 23.316 109.415 23.5441C109.538 23.7722 109.599 24.0307 109.599 24.3202C109.599 24.6131 109.537 24.8727 109.414 25.1003C109.291 25.3274 109.109 25.5058 108.868 25.6356C108.628 25.7659 108.331 25.8307 107.979 25.8307H106.846V25.1515H107.868C108.073 25.1515 108.241 25.1155 108.371 25.0445C108.502 24.9731 108.599 24.8752 108.662 24.7505C108.725 24.6258 108.757 24.4824 108.757 24.3202C108.757 24.1584 108.725 24.016 108.662 23.8928C108.599 23.7696 108.502 23.6733 108.37 23.6044C108.239 23.535 108.07 23.5005 107.863 23.5005H107.106V27.3723H106.28Z" fill="#1C1C1C"/>
<path d="M109.494 4.56222V0H86.6834L82.1212 4.56222V13.6866L86.6834 18.2489H109.494V13.6866H86.6834V4.56222H109.494Z" fill="#1C1C1C"/>
<path d="M59.3102 11.4055H77.5591V6.84332H59.3102V4.56222H82.1213V0H22.8125V6.84332H4.56368V0H0.00146484V18.2489H4.56368V11.4055H22.8125V18.2489H27.3747V4.56222H38.7803V18.2489H43.3425V4.56222H54.748V18.2489H82.1213V13.6866H59.3102V11.4055Z" fill="#1C1C1C"/>
</svg>
